<?xml version="1.0" encoding="UTF-8" standalone="no"?>
<!DOCTYPE svg PUBLIC "-//W3C//DTD SVG 1.1//EN" "http://www.w3.org/Graphics/SVG/1.1/DTD/svg11.dtd">
<!-- Generated by graphviz version 2.38.0 (20140413.2041)
 -->
<!-- Title: ./main; 4680 samples Pages: 1 -->
<svg width="100%" height="100%" xmlns="http://www.w3.org/2000/svg" xmlns:xlink="http://www.w3.org/1999/xlink" onmouseup="handleMouseUp(evt)" onmousedown="handleMouseDown(evt)" onmousemove="handleMouseMove(evt)">
<script type="text/ecmascript"><![CDATA[
// SVGPan
// http://www.cyberz.org/blog/2009/12/08/svgpan-a-javascript-svg-panzoomdrag-library/
// Local modification: if(true || ...) below to force panning, never moving.

/**
 *  SVGPan library 1.2
 * ====================
 *
 * Given an unique existing element with id "viewport", including the
 * the library into any SVG adds the following capabilities:
 *
 *  - Mouse panning
 *  - Mouse zooming (using the wheel)
 *  - Object dargging
 *
 * Known issues:
 *
 *  - Zooming (while panning) on Safari has still some issues
 *
 * Releases:
 *
 * 1.2, Sat Mar 20 08:42:50 GMT 2010, Zeng Xiaohui
 *	Fixed a bug with browser mouse handler interaction
 *
 * 1.1, Wed Feb  3 17:39:33 GMT 2010, Zeng Xiaohui
 *	Updated the zoom code to support the mouse wheel on Safari/Chrome
 *
 * 1.0, Andrea Leofreddi
 *	First release
 *
 * This code is licensed under the following BSD license:
 *
 * Copyright 2009-2010 Andrea Leofreddi <a.leofreddi@itcharm.com>. All rights reserved.
 *
 * Redistribution and use in source and binary forms, with or without modification, are
 * permitted provided that the following conditions are met:
 *
 *    1. Redistributions of source code must retain the above copyright notice, this list of
 *       conditions and the following disclaimer.
 *
 *    2. Redistributions in binary form must reproduce the above copyright notice, this list
 *       of conditions and the following disclaimer in the documentation and/or other materials
 *       provided with the distribution.
 *
 * THIS SOFTWARE IS PROVIDED BY Andrea Leofreddi ``AS IS'' AND ANY EXPRESS OR IMPLIED
 * WARRANTIES, INCLUDING, BUT NOT LIMITED TO, THE IMPLIED WARRANTIES OF MERCHANTABILITY AND
 * FITNESS FOR A PARTICULAR PURPOSE ARE DISCLAIMED. IN NO EVENT SHALL Andrea Leofreddi OR
 * CONTRIBUTORS BE LIABLE FOR ANY DIRECT, INDIRECT, INCIDENTAL, SPECIAL, EXEMPLARY, OR
 * CONSEQUENTIAL DAMAGES (INCLUDING, BUT NOT LIMITED TO, PROCUREMENT OF SUBSTITUTE GOODS OR
 * SERVICES; LOSS OF USE, DATA, OR PROFITS; OR BUSINESS INTERRUPTION) HOWEVER CAUSED AND ON
 * ANY THEORY OF LIABILITY, WHETHER IN CONTRACT, STRICT LIABILITY, OR TORT (INCLUDING
 * NEGLIGENCE OR OTHERWISE) ARISING IN ANY WAY OUT OF THE USE OF THIS SOFTWARE, EVEN IF
 * ADVISED OF THE POSSIBILITY OF SUCH DAMAGE.
 *
 * The views and conclusions contained in the software and documentation are those of the
 * authors and should not be interpreted as representing official policies, either expressed
 * or implied, of Andrea Leofreddi.
 */

var root = document.documentElement;

var state = 'none', stateTarget, stateOrigin, stateTf;

setupHandlers(root);

/**
 * Register handlers
 */
function setupHandlers(root){
	setAttributes(root, {
		"onmouseup" : "add(evt)",
		"onmousedown" : "handleMouseDown(evt)",
		"onmousemove" : "handleMouseMove(evt)",
		"onmouseup" : "handleMouseUp(evt)",
		//"onmouseout" : "handleMouseUp(evt)", // Decomment this to stop the pan functionality when dragging out of the SVG element
	});

	if(navigator.userAgent.toLowerCase().indexOf('webkit') >= 0)
		window.addEventListener('mousewheel', handleMouseWheel, false); // Chrome/Safari
	else
		window.addEventListener('DOMMouseScroll', handleMouseWheel, false); // Others

	var g = svgDoc.getElementById("svg");
	g.width = "100%";
	g.height = "100%";
}

/**
 * Instance an SVGPoint object with given event coordinates.
 */
function getEventPoint(evt) {
	var p = root.createSVGPoint();

	p.x = evt.clientX;
	p.y = evt.clientY;

	return p;
}

/**
 * Sets the current transform matrix of an element.
 */
function setCTM(element, matrix) {
	var s = "matrix(" + matrix.a + "," + matrix.b + "," + matrix.c + "," + matrix.d + "," + matrix.e + "," + matrix.f + ")";

	element.setAttribute("transform", s);
}

/**
 * Dumps a matrix to a string (useful for debug).
 */
function dumpMatrix(matrix) {
	var s = "[ " + matrix.a + ", " + matrix.c + ", " + matrix.e + "\n  " + matrix.b + ", " + matrix.d + ", " + matrix.f + "\n  0, 0, 1 ]";

	return s;
}

/**
 * Sets attributes of an element.
 */
function setAttributes(element, attributes){
	for (i in attributes)
		element.setAttributeNS(null, i, attributes[i]);
}

/**
 * Handle mouse move event.
 */
function handleMouseWheel(evt) {
	if(evt.preventDefault)
		evt.preventDefault();

	evt.returnValue = false;

	var svgDoc = evt.target.ownerDocument;

	var delta;

	if(evt.wheelDelta)
		delta = evt.wheelDelta / 3600; // Chrome/Safari
	else
		delta = evt.detail / -90; // Mozilla

	var z = 1 + delta; // Zoom factor: 0.9/1.1

	var g = svgDoc.getElementById("viewport");

	var p = getEventPoint(evt);

	p = p.matrixTransform(g.getCTM().inverse());

	// Compute new scale matrix in current mouse position
	var k = root.createSVGMatrix().translate(p.x, p.y).scale(z).translate(-p.x, -p.y);

        setCTM(g, g.getCTM().multiply(k));

	stateTf = stateTf.multiply(k.inverse());
}

/**
 * Handle mouse move event.
 */
function handleMouseMove(evt) {
	if(evt.preventDefault)
		evt.preventDefault();

	evt.returnValue = false;

	var svgDoc = evt.target.ownerDocument;

	var g = svgDoc.getElementById("viewport");

	if(state == 'pan') {
		// Pan mode
		var p = getEventPoint(evt).matrixTransform(stateTf);

		setCTM(g, stateTf.inverse().translate(p.x - stateOrigin.x, p.y - stateOrigin.y));
	} else if(state == 'move') {
		// Move mode
		var p = getEventPoint(evt).matrixTransform(g.getCTM().inverse());

		setCTM(stateTarget, root.createSVGMatrix().translate(p.x - stateOrigin.x, p.y - stateOrigin.y).multiply(g.getCTM().inverse()).multiply(stateTarget.getCTM()));

		stateOrigin = p;
	}
}

/**
 * Handle click event.
 */
function handleMouseDown(evt) {
	if(evt.preventDefault)
		evt.preventDefault();

	evt.returnValue = false;

	var svgDoc = evt.target.ownerDocument;

	var g = svgDoc.getElementById("viewport");

	if(true || evt.target.tagName == "svg") {
		// Pan mode
		state = 'pan';

		stateTf = g.getCTM().inverse();

		stateOrigin = getEventPoint(evt).matrixTransform(stateTf);
	} else {
		// Move mode
		state = 'move';

		stateTarget = evt.target;

		stateTf = g.getCTM().inverse();

		stateOrigin = getEventPoint(evt).matrixTransform(stateTf);
	}
}

/**
 * Handle mouse button release event.
 */
function handleMouseUp(evt) {
	if(evt.preventDefault)
		evt.preventDefault();

	evt.returnValue = false;

	var svgDoc = evt.target.ownerDocument;

	if(state == 'pan' || state == 'move') {
		// Quit pan mode
		state = '';
	}
}

]]></script>
<g id="viewport" transform="matrix(0.8746365904808044,0,0,0.8746365904808044,250.31784057617188,-46.96527862548828)">
<g id="viewport" class="graph" transform="scale(1 1) rotate(0) translate(4 1399)">
<title>./main; 4680 samples</title>
<polygon fill="white" stroke="none" points="-4,4 -4,-1399 782,-1399 782,4 -4,4"/>
<!-- Legend -->
<g id="node1" class="node"><title>Legend</title>
<text text-anchor="start" x="8" y="-1371.8" font-family="Times,serif" font-size="24.00">./main</text>
<text text-anchor="start" x="8" y="-1345.8" font-family="Times,serif" font-size="24.00">Total samples: 4680</text>
<text text-anchor="start" x="8" y="-1319.8" font-family="Times,serif" font-size="24.00">Focusing on: 4680</text>
<text text-anchor="start" x="8" y="-1293.8" font-family="Times,serif" font-size="24.00">Dropped nodes with &lt;= 23 abs(samples)</text>
<text text-anchor="start" x="8" y="-1267.8" font-family="Times,serif" font-size="24.00">Dropped edges with &lt;= 4 samples</text>
</g>
<!-- N1 -->
<g id="node2" class="node"><title>N1</title>
<polygon fill="none" stroke="black" points="496,-1206 422,-1206 422,-1171 496,-1171 496,-1206"/>
<text text-anchor="middle" x="459" y="-1195.6" font-family="Times,serif" font-size="8.00">__libc_start_main</text>
<text text-anchor="end" x="488" y="-1186.6" font-family="Times,serif" font-size="8.00">0 (0.0%)</text>
<text text-anchor="end" x="488" y="-1177.6" font-family="Times,serif" font-size="8.00">of 4680 (100.0%)</text>
</g>
<!-- N3 -->
<g id="node4" class="node"><title>N3</title>
<polygon fill="none" stroke="black" points="495.5,-1120 422.5,-1120 422.5,-1085 495.5,-1085 495.5,-1120"/>
<text text-anchor="middle" x="459" y="-1109.6" font-family="Times,serif" font-size="8.00">main</text>
<text text-anchor="end" x="487.5" y="-1100.6" font-family="Times,serif" font-size="8.00">0 (0.0%)</text>
<text text-anchor="end" x="487.5" y="-1091.6" font-family="Times,serif" font-size="8.00">of 4680 (100.0%)</text>
</g>
<!-- N1&#45;&gt;N3 -->
<g id="edge1" class="edge"><title>N1-&gt;N3</title>
<path fill="none" stroke="black" stroke-width="2" d="M459,-1170.9C459,-1159.28 459,-1143.51 459,-1130.14"/>
<polygon fill="black" stroke="black" stroke-width="2" points="462.5,-1130.06 459,-1120.06 455.5,-1130.06 462.5,-1130.06"/>
<text text-anchor="middle" x="473" y="-1141.8" font-family="Times,serif" font-size="14.00">4680</text>
</g>
<!-- N2 -->
<g id="node3" class="node"><title>N2</title>
<polygon fill="none" stroke="black" points="495.5,-1343.5 422.5,-1343.5 422.5,-1308.5 495.5,-1308.5 495.5,-1343.5"/>
<text text-anchor="middle" x="459" y="-1333.1" font-family="Times,serif" font-size="8.00">_start</text>
<text text-anchor="end" x="487.5" y="-1324.1" font-family="Times,serif" font-size="8.00">0 (0.0%)</text>
<text text-anchor="end" x="487.5" y="-1315.1" font-family="Times,serif" font-size="8.00">of 4680 (100.0%)</text>
</g>
<!-- N2&#45;&gt;N1 -->
<g id="edge2" class="edge"><title>N2-&gt;N1</title>
<path fill="none" stroke="black" stroke-width="2" d="M459,-1308.39C459,-1285.43 459,-1243.74 459,-1216.33"/>
<polygon fill="black" stroke="black" stroke-width="2" points="462.5,-1216.25 459,-1206.25 455.5,-1216.25 462.5,-1216.25"/>
<text text-anchor="middle" x="473" y="-1227.8" font-family="Times,serif" font-size="14.00">4680</text>
</g>
<!-- N4 -->
<g id="node5" class="node"><title>N4</title>
<polygon fill="none" stroke="black" points="572,-1034 346,-1034 346,-886 572,-886 572,-1034"/>
<text text-anchor="middle" x="459" y="-1004.4" font-family="Times,serif" font-size="32.00">Complex</text>
<text text-anchor="middle" x="459" y="-969.4" font-family="Times,serif" font-size="32.00">calculatePI</text>
<text text-anchor="end" x="564" y="-934.4" font-family="Times,serif" font-size="32.00">1075 (23.0%)</text>
<text text-anchor="end" x="564" y="-899.4" font-family="Times,serif" font-size="32.00">of 2547 (54.4%)</text>
</g>
<!-- N3&#45;&gt;N4 -->
<g id="edge3" class="edge"><title>N3-&gt;N4</title>
<path fill="none" stroke="black" stroke-width="2" d="M459,-1084.83C459,-1074.28 459,-1059.75 459,-1044.35"/>
<polygon fill="black" stroke="black" stroke-width="2" points="462.5,-1044.14 459,-1034.14 455.5,-1044.14 462.5,-1044.14"/>
<text text-anchor="middle" x="473" y="-1055.8" font-family="Times,serif" font-size="14.00">2547</text>
</g>
<!-- N5 -->
<g id="node6" class="node"><title>N5</title>
<polygon fill="none" stroke="black" points="744,-998.5 590,-998.5 590,-921.5 744,-921.5 744,-998.5"/>
<text text-anchor="middle" x="667" y="-978.1" font-family="Times,serif" font-size="20.50">calculateSum</text>
<text text-anchor="end" x="736" y="-955.1" font-family="Times,serif" font-size="20.50">294 (6.3%)</text>
<text text-anchor="end" x="736" y="-932.1" font-family="Times,serif" font-size="20.50">of 2133 (45.6%)</text>
</g>
<!-- N3&#45;&gt;N5 -->
<g id="edge4" class="edge"><title>N3-&gt;N5</title>
<path fill="none" stroke="black" stroke-width="2" d="M493.208,-1084.89C518.276,-1072.17 552.72,-1053.54 581,-1034 593.557,-1025.32 606.438,-1015.17 618.282,-1005.23"/>
<polygon fill="black" stroke="black" stroke-width="2" points="620.551,-1007.9 625.902,-998.754 616.016,-1002.56 620.551,-1007.9"/>
<text text-anchor="middle" x="566" y="-1055.8" font-family="Times,serif" font-size="14.00">2133</text>
</g>
<!-- N8 -->
<g id="node9" class="node"><title>N8</title>
<polygon fill="none" stroke="black" points="534.5,-835 389.5,-835 389.5,-743 534.5,-743 534.5,-835"/>
<text text-anchor="middle" x="462" y="-815.48" font-family="Times,serif" font-size="19.40">Complex</text>
<text text-anchor="middle" x="462" y="-794.48" font-family="Times,serif" font-size="19.40">recordPI</text>
<text text-anchor="end" x="526.5" y="-773.48" font-family="Times,serif" font-size="19.40">245 (5.2%)</text>
<text text-anchor="end" x="526.5" y="-752.48" font-family="Times,serif" font-size="19.40">of 1422 (30.4%)</text>
</g>
<!-- N4&#45;&gt;N8 -->
<g id="edge6" class="edge"><title>N4-&gt;N8</title>
<path fill="none" stroke="black" stroke-width="1.82308" d="M460.298,-885.857C460.538,-872.342 460.785,-858.432 461.014,-845.545"/>
<polygon fill="black" stroke="black" stroke-width="1.82308" points="464.515,-845.516 461.193,-835.456 457.516,-845.392 464.515,-845.516"/>
<text text-anchor="middle" x="474" y="-856.8" font-family="Times,serif" font-size="14.00">1422</text>
</g>
<!-- N14 -->
<g id="node15" class="node"><title>N14</title>
<polygon fill="none" stroke="black" points="400.5,-725 317.5,-725 317.5,-690 400.5,-690 400.5,-725"/>
<text text-anchor="middle" x="359" y="-714.6" font-family="Times,serif" font-size="8.00">0x400921fb54442d15</text>
<text text-anchor="end" x="392.5" y="-705.6" font-family="Times,serif" font-size="8.00">0 (0.0%)</text>
<text text-anchor="end" x="392.5" y="-696.6" font-family="Times,serif" font-size="8.00">of 50 (1.1%)</text>
</g>
<!-- N4&#45;&gt;N14 -->
<g id="edge15" class="edge"><title>N4-&gt;N14</title>
<path fill="none" stroke="black" d="M406.418,-885.733C396.737,-869.62 387.613,-852.212 381,-835 368.337,-802.045 362.922,-761.45 360.634,-735.281"/>
<polygon fill="black" stroke="black" points="364.1,-734.71 359.832,-725.013 357.121,-735.255 364.1,-734.71"/>
<text text-anchor="middle" x="402" y="-856.8" font-family="Times,serif" font-size="14.00">50</text>
</g>
<!-- N7 -->
<g id="node8" class="node"><title>N7</title>
<polygon fill="none" stroke="black" points="740.5,-824.5 593.5,-824.5 593.5,-753.5 740.5,-753.5 740.5,-824.5"/>
<text text-anchor="middle" x="667" y="-804.9" font-family="Times,serif" font-size="19.50">recordSum</text>
<text text-anchor="end" x="732.5" y="-783.9" font-family="Times,serif" font-size="19.50">249 (5.3%)</text>
<text text-anchor="end" x="732.5" y="-762.9" font-family="Times,serif" font-size="19.50">of 1839 (39.3%)</text>
</g>
<!-- N5&#45;&gt;N7 -->
<g id="edge5" class="edge"><title>N5-&gt;N7</title>
<path fill="none" stroke="black" stroke-width="2" d="M667,-921.493C667,-895.911 667,-861.902 667,-834.88"/>
<polygon fill="black" stroke="black" stroke-width="2" points="670.5,-834.524 667,-824.525 663.5,-834.525 670.5,-834.524"/>
<text text-anchor="middle" x="681" y="-856.8" font-family="Times,serif" font-size="14.00">1839</text>
</g>
<!-- N6 -->
<g id="node7" class="node"><title>N6</title>
<polygon fill="none" stroke="black" points="778,-672 556,-672 556,-494 778,-494 778,-672"/>
<text text-anchor="middle" x="667" y="-643.28" font-family="Times,serif" font-size="30.90">std</text>
<text text-anchor="middle" x="667" y="-609.28" font-family="Times,serif" font-size="30.90">vector</text>
<text text-anchor="middle" x="667" y="-575.28" font-family="Times,serif" font-size="30.90">push_back</text>
<text text-anchor="end" x="770" y="-541.28" font-family="Times,serif" font-size="30.90">983 (21.0%)</text>
<text text-anchor="end" x="770" y="-507.28" font-family="Times,serif" font-size="30.90">of 2111 (45.1%)</text>
</g>
<!-- N9 -->
<g id="node10" class="node"><title>N9</title>
<polygon fill="none" stroke="black" points="748.5,-443 585.5,-443 585.5,-315 748.5,-315 748.5,-443"/>
<text text-anchor="middle" x="667" y="-421.56" font-family="Times,serif" font-size="21.80">__gnu_cxx</text>
<text text-anchor="middle" x="667" y="-397.56" font-family="Times,serif" font-size="21.80">__alloc_traits</text>
<text text-anchor="middle" x="667" y="-373.56" font-family="Times,serif" font-size="21.80">construct</text>
<text text-anchor="end" x="740.5" y="-349.56" font-family="Times,serif" font-size="21.80">357 (7.6%)</text>
<text text-anchor="end" x="740.5" y="-325.56" font-family="Times,serif" font-size="21.80">of 1128 (24.1%)</text>
</g>
<!-- N6&#45;&gt;N9 -->
<g id="edge8" class="edge"><title>N6-&gt;N9</title>
<path fill="none" stroke="black" stroke-width="1.44615" d="M667,-493.987C667,-480.481 667,-466.659 667,-453.511"/>
<polygon fill="black" stroke="black" stroke-width="1.44615" points="670.5,-453.128 667,-443.129 663.5,-453.129 670.5,-453.128"/>
<text text-anchor="middle" x="681" y="-464.8" font-family="Times,serif" font-size="14.00">1128</text>
</g>
<!-- N7&#45;&gt;N6 -->
<g id="edge7" class="edge"><title>N7-&gt;N6</title>
<path fill="none" stroke="black" stroke-width="1.59487" d="M667,-753.394C667,-733.624 667,-707.741 667,-682.177"/>
<polygon fill="black" stroke="black" stroke-width="1.59487" points="670.5,-682.029 667,-672.029 663.5,-682.029 670.5,-682.029"/>
<text text-anchor="middle" x="681" y="-703.8" font-family="Times,serif" font-size="14.00">1244</text>
</g>
<!-- N11 -->
<g id="node12" class="node"><title>N11</title>
<polygon fill="none" stroke="black" points="538,-645 386,-645 386,-521 538,-521 538,-645"/>
<text text-anchor="middle" x="462" y="-619.64" font-family="Times,serif" font-size="26.70">std</text>
<text text-anchor="middle" x="462" y="-590.64" font-family="Times,serif" font-size="26.70">vector</text>
<text text-anchor="middle" x="462" y="-561.64" font-family="Times,serif" font-size="26.70">size</text>
<text text-anchor="end" x="530" y="-532.64" font-family="Times,serif" font-size="26.70">656 (14.0%)</text>
</g>
<!-- N7&#45;&gt;N11 -->
<g id="edge11" class="edge"><title>N7-&gt;N11</title>
<path fill="none" stroke="black" d="M642.671,-753.177C627.264,-732.919 605.961,-707.928 583,-690 568.9,-678.991 561.421,-682.585 547,-672 538.909,-666.061 530.91,-659.317 523.243,-652.267"/>
<polygon fill="black" stroke="black" points="525.368,-649.459 515.696,-645.133 520.559,-654.546 525.368,-649.459"/>
<text text-anchor="middle" x="628.5" y="-703.8" font-family="Times,serif" font-size="14.00">346</text>
</g>
<!-- N8&#45;&gt;N6 -->
<g id="edge9" class="edge"><title>N8-&gt;N6</title>
<path fill="none" stroke="black" stroke-width="1.11154" d="M507.242,-742.979C526.18,-724.133 548.959,-701.466 571.304,-679.229"/>
<polygon fill="black" stroke="black" stroke-width="1.11154" points="573.919,-681.565 578.538,-672.03 568.981,-676.603 573.919,-681.565"/>
<text text-anchor="middle" x="568.5" y="-703.8" font-family="Times,serif" font-size="14.00">867</text>
</g>
<!-- N8&#45;&gt;N11 -->
<g id="edge12" class="edge"><title>N8-&gt;N11</title>
<path fill="none" stroke="black" d="M462,-742.979C462,-717.264 462,-684.434 462,-655.293"/>
<polygon fill="black" stroke="black" points="465.5,-655.156 462,-645.157 458.5,-655.157 465.5,-655.156"/>
<text text-anchor="middle" x="472.5" y="-703.8" font-family="Times,serif" font-size="14.00">310</text>
</g>
<!-- N10 -->
<g id="node11" class="node"><title>N10</title>
<polygon fill="none" stroke="black" points="753,-264 581,-264 581,-116 753,-116 753,-264"/>
<text text-anchor="middle" x="667" y="-239.52" font-family="Times,serif" font-size="25.60">__gnu_cxx</text>
<text text-anchor="middle" x="667" y="-211.52" font-family="Times,serif" font-size="25.60">new_allocator</text>
<text text-anchor="middle" x="667" y="-183.52" font-family="Times,serif" font-size="25.60">construct</text>
<text text-anchor="end" x="745" y="-155.52" font-family="Times,serif" font-size="25.60">580 (12.4%)</text>
<text text-anchor="end" x="745" y="-127.52" font-family="Times,serif" font-size="25.60">of 743 (15.9%)</text>
</g>
<!-- N9&#45;&gt;N10 -->
<g id="edge10" class="edge"><title>N9-&gt;N10</title>
<path fill="none" stroke="black" d="M667,-314.951C667,-301.939 667,-288.044 667,-274.436"/>
<polygon fill="black" stroke="black" points="670.5,-274.106 667,-264.106 663.5,-274.106 670.5,-274.106"/>
<text text-anchor="middle" x="677.5" y="-285.8" font-family="Times,serif" font-size="14.00">743</text>
</g>
<!-- N15 -->
<g id="node16" class="node"><title>N15</title>
<polygon fill="none" stroke="black" points="515.5,-207.5 434.5,-207.5 434.5,-172.5 515.5,-172.5 515.5,-207.5"/>
<text text-anchor="middle" x="475" y="-197.1" font-family="Times,serif" font-size="8.00">0x00007ffd5e55f39f</text>
<text text-anchor="end" x="507.5" y="-188.1" font-family="Times,serif" font-size="8.00">0 (0.0%)</text>
<text text-anchor="end" x="507.5" y="-179.1" font-family="Times,serif" font-size="8.00">of 28 (0.6%)</text>
</g>
<!-- N9&#45;&gt;N15 -->
<g id="edge17" class="edge"><title>N9-&gt;N15</title>
<path fill="none" stroke="black" d="M602.265,-314.951C566.945,-280.55 525.286,-239.976 499.504,-214.866"/>
<polygon fill="black" stroke="black" points="501.643,-212.063 492.037,-207.593 496.758,-217.078 501.643,-212.063"/>
<text text-anchor="middle" x="589" y="-285.8" font-family="Times,serif" font-size="14.00">28</text>
</g>
<!-- N12 -->
<g id="node13" class="node"><title>N12</title>
<polygon fill="none" stroke="black" points="715.5,-65 618.5,-65 618.5,-0 715.5,-0 715.5,-65"/>
<text text-anchor="middle" x="667" y="-47.16" font-family="Times,serif" font-size="17.30">operator</text>
<text text-anchor="middle" x="667" y="-28.16" font-family="Times,serif" font-size="17.30">new</text>
<text text-anchor="end" x="707.5" y="-9.16" font-family="Times,serif" font-size="17.30">163 (3.5%)</text>
</g>
<!-- N10&#45;&gt;N12 -->
<g id="edge13" class="edge"><title>N10-&gt;N12</title>
<path fill="none" stroke="black" d="M667,-115.803C667,-101.895 667,-87.7916 667,-75.2817"/>
<polygon fill="black" stroke="black" points="670.5,-75.1874 667,-65.1874 663.5,-75.1875 670.5,-75.1874"/>
<text text-anchor="middle" x="677.5" y="-86.8" font-family="Times,serif" font-size="14.00">163</text>
</g>
<!-- N13 -->
<g id="node14" class="node"><title>N13</title>
<polygon fill="none" stroke="black" points="395.5,-52.5 320.5,-52.5 320.5,-12.5 395.5,-12.5 395.5,-52.5"/>
<text text-anchor="middle" x="358" y="-36.9" font-family="Times,serif" font-size="14.50">_init</text>
<text text-anchor="end" x="387.5" y="-20.9" font-family="Times,serif" font-size="14.50">78 (1.7%)</text>
</g>
<!-- N14&#45;&gt;N13 -->
<g id="edge14" class="edge"><title>N14-&gt;N13</title>
<path fill="none" stroke="black" d="M358.881,-689.835C358.616,-651.14 358,-552.204 358,-469.5 358,-469.5 358,-469.5 358,-189 358,-145.048 358,-94.109 358,-62.8454"/>
<polygon fill="black" stroke="black" points="361.5,-62.6513 358,-52.6513 354.5,-62.6514 361.5,-62.6513"/>
<text text-anchor="middle" x="365" y="-375.3" font-family="Times,serif" font-size="14.00">50</text>
</g>
<!-- N15&#45;&gt;N13 -->
<g id="edge16" class="edge"><title>N15-&gt;N13</title>
<path fill="none" stroke="black" d="M462.479,-172.359C442.456,-145.748 403.021,-93.3356 378.74,-61.0648"/>
<polygon fill="black" stroke="black" points="381.428,-58.8152 372.618,-52.9288 375.834,-63.0239 381.428,-58.8152"/>
<text text-anchor="middle" x="413" y="-86.8" font-family="Times,serif" font-size="14.00">28</text>
</g>
</g>
</g></svg>